HIERARCHY
ROOT Hip
{
	OFFSET 1.408637 -1.492313 0.122085
	CHANNELS 6 Xposition Yposition Zposition Xrotation Yrotation Zrotation
	JOINT LowerSpine
	{
		OFFSET 0.000000 0.154691 0.259874
		CHANNELS 6 Xposition Yposition Zposition Xrotation Yrotation Zrotation
		JOINT MiddleSpine
		{
			OFFSET -0.000000 -0.011153 0.237154
			CHANNELS 3 Xrotation Yrotation Zrotation
			JOINT Chest
			{
				OFFSET -0.000000 0.058786 0.293449
				CHANNELS 3 Xrotation Yrotation Zrotation
				JOINT Neck
				{
					OFFSET -0.000000 0.012376 0.661279
					CHANNELS 6 Xposition Yposition Zposition Xrotation Yrotation Zrotation
					JOINT Head
					{
						OFFSET -0.000003 -0.101573 0.373433
						CHANNELS 3 Xrotation Yrotation Zrotation
						End Site
						{
							OFFSET 0.000000 -0.001601 0.053629
						}
					}
				}
				JOINT LClavicle
				{
					OFFSET 0.060085 -0.196776 0.638168
					CHANNELS 6 Xposition Yposition Zposition Xrotation Yrotation Zrotation
					JOINT LShoulder
					{
						OFFSET 0.351027 0.148114 0.091535
						CHANNELS 3 Xrotation Yrotation Zrotation
						JOINT LForearm
						{
							OFFSET 0.828501 0.007179 -0.002937
							CHANNELS 3 Xrotation Yrotation Zrotation
							JOINT LHand
							{
								OFFSET 0.691144 0.004141 0.002005
								CHANNELS 3 Xrotation Yrotation Zrotation
								JOINT LFinger1
								{
									OFFSET 0.267868 -0.074399 0.023428
									CHANNELS 6 Xposition Yposition Zposition Xrotation Yrotation Zrotation
									JOINT LFinger11
									{
										OFFSET 0.100196 -0.017654 -0.024432
										CHANNELS 3 Xrotation Yrotation Zrotation
										JOINT LFinger12
										{
											OFFSET 0.068401 -0.012057 -0.016683
											CHANNELS 3 Xrotation Yrotation Zrotation
											End Site
											{
												OFFSET 0.050801 -0.008241 -0.015164
											}
										}
									}
								}
								JOINT LFinger2
								{
									OFFSET 0.271867 -0.006477 0.027054
									CHANNELS 6 Xposition Yposition Zposition Xrotation Yrotation Zrotation
									JOINT LFinger21
									{
										OFFSET 0.123886 0.000731 0.000344
										CHANNELS 3 Xrotation Yrotation Zrotation
										JOINT LFinger22
										{
											OFFSET 0.068670 0.000417 0.000210
											CHANNELS 3 Xrotation Yrotation Zrotation
											End Site
											{
												OFFSET 0.053519 -0.000073 -0.003780
											}
										}
									}
								}
								JOINT LFinger3
								{
									OFFSET 0.257651 0.060956 0.018054
									CHANNELS 6 Xposition Yposition Zposition Xrotation Yrotation Zrotation
									JOINT LFinger31
									{
										OFFSET 0.112414 0.007039 -0.005693
										CHANNELS 3 Xrotation Yrotation Zrotation
										JOINT LFinger32
										{
											OFFSET 0.064059 0.004024 -0.003223
											CHANNELS 3 Xrotation Yrotation Zrotation
											End Site
											{
												OFFSET 0.053193 0.002514 -0.006540
											}
										}
									}
								}
								JOINT LFinger4
								{
									OFFSET 0.239089 0.105269 -0.018169
									CHANNELS 6 Xposition Yposition Zposition Xrotation Yrotation Zrotation
									JOINT LFinger41
									{
										OFFSET 0.069146 0.019088 -0.014420
										CHANNELS 3 Xrotation Yrotation Zrotation
										JOINT LFinger42
										{
											OFFSET 0.050705 0.014006 -0.010559
											CHANNELS 3 Xrotation Yrotation Zrotation
											End Site
											{
												OFFSET 0.050514 0.011591 -0.013878
											}
										}
									}
								}
								JOINT LFinger0
								{
									OFFSET 0.055412 -0.042009 -0.041941
									CHANNELS 6 Xposition Yposition Zposition Xrotation Yrotation Zrotation
									JOINT LFinger01
									{
										OFFSET 0.103169 -0.077784 -0.033880
										CHANNELS 3 Xrotation Yrotation Zrotation
										JOINT LFinger02
										{
											OFFSET 0.067934 -0.048944 -0.024309
											CHANNELS 3 Xrotation Yrotation Zrotation
											End Site
											{
												OFFSET 0.042585 -0.029159 -0.014660
											}
										}
									}
								}
							}
						}
					}
				}
				JOINT RClavicle
				{
					OFFSET -0.060085 -0.196776 0.638168
					CHANNELS 6 Xposition Yposition Zposition Xrotation Yrotation Zrotation
					JOINT RShoulder
					{
						OFFSET -0.351089 0.148139 0.091551
						CHANNELS 3 Xrotation Yrotation Zrotation
						JOINT RForearm
						{
							OFFSET -0.828500 0.007179 -0.002937
							CHANNELS 3 Xrotation Yrotation Zrotation
							JOINT RHand
							{
								OFFSET -0.691144 0.004142 0.002004
								CHANNELS 3 Xrotation Yrotation Zrotation
								JOINT RFinger1
								{
									OFFSET -0.267870 -0.074399 0.023430
									CHANNELS 6 Xposition Yposition Zposition Xrotation Yrotation Zrotation
									JOINT RFinger11
									{
										OFFSET -0.100195 -0.017654 -0.024433
										CHANNELS 3 Xrotation Yrotation Zrotation
										JOINT RFinger12
										{
											OFFSET -0.068401 -0.012057 -0.016688
											CHANNELS 3 Xrotation Yrotation Zrotation
											End Site
											{
												OFFSET -0.050801 -0.008241 -0.015164
											}
										}
									}
								}
								JOINT RFinger2
								{
									OFFSET -0.271866 -0.006479 0.027053
									CHANNELS 6 Xposition Yposition Zposition Xrotation Yrotation Zrotation
									JOINT RFinger21
									{
										OFFSET -0.123886 0.000731 0.000347
										CHANNELS 3 Xrotation Yrotation Zrotation
										JOINT RFinger22
										{
											OFFSET -0.068670 0.000420 0.000210
											CHANNELS 3 Xrotation Yrotation Zrotation
											End Site
											{
												OFFSET -0.053519 -0.000073 -0.003781
											}
										}
									}
								}
								JOINT RFinger3
								{
									OFFSET -0.257650 0.060956 0.018057
									CHANNELS 6 Xposition Yposition Zposition Xrotation Yrotation Zrotation
									JOINT RFinger31
									{
										OFFSET -0.112414 0.007039 -0.005693
										CHANNELS 3 Xrotation Yrotation Zrotation
										JOINT RFinger32
										{
											OFFSET -0.064061 0.004023 -0.003223
											CHANNELS 3 Xrotation Yrotation Zrotation
											End Site
											{
												OFFSET -0.053193 0.002514 -0.006540
											}
										}
									}
								}
								JOINT RFinger4
								{
									OFFSET -0.239089 0.105269 -0.018170
									CHANNELS 6 Xposition Yposition Zposition Xrotation Yrotation Zrotation
									JOINT RFinger41
									{
										OFFSET -0.069146 0.019088 -0.014420
										CHANNELS 3 Xrotation Yrotation Zrotation
										JOINT RFinger42
										{
											OFFSET -0.050705 0.014006 -0.010556
											CHANNELS 3 Xrotation Yrotation Zrotation
											End Site
											{
												OFFSET -0.050514 0.011591 -0.013878
											}
										}
									}
								}
								JOINT RFinger0
								{
									OFFSET -0.055412 -0.042006 -0.041939
									CHANNELS 6 Xposition Yposition Zposition Xrotation Yrotation Zrotation
									JOINT RFinger01
									{
										OFFSET -0.103169 -0.077787 -0.033886
										CHANNELS 3 Xrotation Yrotation Zrotation
										JOINT RFinger02
										{
											OFFSET -0.067934 -0.048944 -0.024307
											CHANNELS 3 Xrotation Yrotation Zrotation
											End Site
											{
												OFFSET -0.042585 -0.029159 -0.014659
											}
										}
									}
								}
							}
						}
					}
				}
			}
		}
	}
	JOINT RThigh
	{
		OFFSET -0.307261 0.025206 0.117468
		CHANNELS 6 Xposition Yposition Zposition Xrotation Yrotation Zrotation
		JOINT RShin
		{
			OFFSET -0.022246 -0.000000 -1.209169
			CHANNELS 3 Xrotation Yrotation Zrotation
			JOINT RFoot
			{
				OFFSET 0.000000 -0.000000 -1.187332
				CHANNELS 3 Xrotation Yrotation Zrotation
				JOINT RToe
				{
					OFFSET 0.000000 -0.272888 -0.130497
					CHANNELS 3 Xrotation Yrotation Zrotation
					End Site
					{
						OFFSET 0.000000 -0.053652 0.000000
					}
				}
			}
		}
	}
	JOINT LThigh
	{
		OFFSET 0.307258 0.025205 0.117477
		CHANNELS 6 Xposition Yposition Zposition Xrotation Yrotation Zrotation
		JOINT LShin
		{
			OFFSET 0.022246 0.000001 -1.209178
			CHANNELS 3 Xrotation Yrotation Zrotation
			JOINT LFoot
			{
				OFFSET -0.000000 0.000000 -1.187332
				CHANNELS 3 Xrotation Yrotation Zrotation
				JOINT LToe
				{
					OFFSET -0.000000 -0.272891 -0.130500
					CHANNELS 3 Xrotation Yrotation Zrotation
					End Site
					{
						OFFSET 0.000000 -0.053652 0.000000
					}
				}
			}
		}
	}
}
MOTION
Frames: 4
Frame Time: 0.041667
0.963098 -0.849764 2.301213 16.597611 14.658496 -355.693412 0.000000 0.154692 0.259874 -0.000000 -0.000000 0.000003 -2.559242 -1.428354 -3.129274 -8.793863 -4.141195 -10.789883 -0.000000 0.012376 0.661278 -11.204471 -18.886680 -7.238019 -0.063540 0.733638 0.017559 0.060085 -0.196776 0.638168 -0.000004 7.302597 0.000000 35.089356 36.320118 -26.748607 0.002596 0.000013 -0.456614 0.000002 0.000005 -0.000001 0.267867 -0.074399 0.023428 0.000003 0.000006 -0.000004 0.000004 0.000003 0.000003 -0.000007 -0.000011 0.000001 0.271866 -0.006477 0.027054 0.000002 0.000005 -0.000001 0.000003 0.000001 0.000001 0.000002 0.000001 -0.000003 0.257650 0.060956 0.018054 0.000001 0.000004 -0.000001 0.000005 -0.000005 0.000005 -0.000001 0.000002 0.000001 0.239090 0.105269 -0.018169 -0.000005 0.000006 -0.000004 0.000002 -0.000002 -0.000008 0.000002 -0.000009 -0.000004 0.055412 -0.042009 -0.041941 0.000007 0.000004 -0.000011 0.000002 -0.000003 -0.000007 -0.000006 -0.000002 0.000005 -0.060086 -0.196776 0.638168 0.000004 -11.783654 0.000003 50.153823 -40.755568 38.658130 -0.000006 0.000015 3.356805 -0.000004 -0.000248 0.000027 -0.267871 -0.074399 0.023430 0.000007 0.000010 -0.000004 0.000007 0.000009 0.000007 -0.000003 -0.000013 -0.000001 -0.271867 -0.006479 0.027054 -0.000002 -0.000000 0.000006 -0.000004 0.000009 0.000010 0.000001 -0.000003 -0.000002 -0.257651 0.060956 0.018058 -0.000002 0.000017 0.000004 -0.000007 0.000015 0.000003 0.000001 0.000002 -0.000002 -0.239089 0.105269 -0.018169 -0.000002 0.000017 0.000002 0.000003 0.000006 0.000019 0.000000 -0.000006 -0.000013 -0.055412 -0.042006 -0.041938 -0.000004 0.000010 0.000008 -0.000009 -0.000002 0.000007 -0.000006 -0.000005 0.000003 -0.307261 0.025206 0.117468 -54.028115 -3.509841 -2.810643 19.013420 -0.000005 0.000013 7.720491 0.374662 -0.927886 -0.000029 -0.000002 0.000002 0.307258 0.025206 0.117477 -31.978334 -0.934884 7.330244 28.179723 -0.000007 0.000011 -7.645867 -1.777834 3.165714 -0.006300 0.000005 -0.000003 
0.941743 -0.849492 2.325679 14.880701 16.485971 -351.178602 0.000000 0.154692 0.259873 -0.000000 0.000001 0.000002 -2.606675 -1.425011 -3.061048 -8.903567 -4.061443 -10.751897 -0.000000 0.012376 0.661278 -10.805434 -19.068730 -7.232507 -0.040371 0.693742 0.015985 0.060085 -0.196775 0.638167 -0.000002 6.966734 0.000000 30.176268 34.392219 -19.757304 -0.000001 0.000001 0.523681 0.000002 0.000005 0.000000 0.267867 -0.074399 0.023428 -0.000001 0.000007 -0.000005 0.000007 0.000001 0.000004 -0.000001 -0.000013 0.000001 0.271866 -0.006477 0.027054 0.000004 0.000005 -0.000004 0.000001 -0.000001 0.000003 -0.000001 -0.000001 -0.000003 0.257649 0.060956 0.018055 -0.000000 0.000008 -0.000002 0.000000 -0.000010 0.000005 -0.000000 0.000001 0.000001 0.239089 0.105269 -0.018169 -0.000002 0.000007 -0.000007 0.000003 -0.000006 -0.000009 0.000005 -0.000004 -0.000005 0.055412 -0.042009 -0.041941 0.000007 0.000005 -0.000012 0.000004 -0.000000 -0.000006 -0.000003 -0.000003 0.000004 -0.060085 -0.196775 0.638168 0.000006 -12.091335 0.000004 52.654280 -42.609391 39.525321 0.002118 0.000006 3.809199 -0.000004 -0.000243 0.000028 -0.267871 -0.074398 0.023430 0.000007 0.000010 -0.000007 0.000009 0.000010 0.000006 0.000002 -0.000015 0.000001 -0.271867 -0.006479 0.027054 -0.000002 0.000002 0.000006 -0.000008 0.000005 0.000011 -0.000004 -0.000008 -0.000002 -0.257651 0.060956 0.018058 0.000001 0.000018 0.000005 -0.000009 0.000016 -0.000000 -0.000002 0.000005 -0.000000 -0.239089 0.105269 -0.018169 -0.000004 0.000015 0.000003 0.000003 0.000007 0.000017 0.000000 -0.000007 -0.000008 -0.055413 -0.042006 -0.041938 -0.000001 0.000009 0.000007 -0.000009 -0.000007 0.000011 -0.000009 -0.000009 0.000002 -0.307261 0.025206 0.117468 -51.716495 3.212776 0.550825 14.904103 -0.000006 0.000010 8.198537 -0.157701 0.393750 -0.000026 -0.000004 0.000004 0.307258 0.025206 0.117476 -29.723252 -1.861567 6.780368 24.837746 -0.000009 0.000012 -5.664238 -0.427793 0.779517 -0.000281 0.000006 -0.000003 
0.918071 -0.853073 2.355191 12.969535 18.219260 -347.065927 0.000000 0.154692 0.259874 -0.000003 0.000001 0.000003 -2.655901 -1.427513 -2.987762 -8.980969 -3.951422 -10.869990 -0.000000 0.012376 0.661279 -10.479215 -19.219015 -7.227606 -0.026151 0.672544 0.015104 0.060085 -0.196775 0.638167 -0.000003 6.490307 0.000007 25.283176 31.472211 -12.804779 -0.002231 -0.000014 1.263221 -0.000002 0.000003 0.000001 0.267867 -0.074399 0.023428 0.000001 0.000003 -0.000004 -0.000001 -0.000002 0.000003 -0.000003 -0.000010 0.000001 0.271866 -0.006477 0.027054 0.000003 -0.000000 -0.000005 0.000001 -0.000006 0.000002 -0.000001 0.000002 -0.000005 0.257649 0.060956 0.018055 -0.000002 0.000005 -0.000001 -0.000002 -0.000003 0.000004 0.000003 0.000004 0.000001 0.239089 0.105269 -0.018169 -0.000006 0.000006 -0.000004 0.000004 -0.000001 -0.000003 0.000001 -0.000011 -0.000006 0.055412 -0.042009 -0.041941 0.000005 0.000004 -0.000016 0.000003 -0.000002 -0.000006 -0.000005 -0.000004 0.000003 -0.060086 -0.196775 0.638168 0.000002 -12.365901 0.000008 55.798517 -43.754161 42.148756 0.001496 0.000005 2.609178 -0.000019 -0.000234 0.000025 -0.267871 -0.074398 0.023430 0.000007 0.000009 -0.000007 0.000008 0.000010 0.000007 0.000002 -0.000012 0.000003 -0.271866 -0.006479 0.027054 -0.000002 0.000006 0.000001 -0.000005 0.000008 0.000007 0.000007 -0.000006 -0.000002 -0.257650 0.060956 0.018058 0.000001 0.000018 0.000005 -0.000005 0.000015 0.000001 0.000005 0.000002 -0.000001 -0.239089 0.105269 -0.018169 -0.000000 0.000020 0.000000 0.000003 0.000007 0.000021 0.000003 -0.000007 -0.000007 -0.055412 -0.042006 -0.041938 -0.000003 0.000015 0.000003 -0.000006 -0.000006 0.000009 -0.000009 -0.000009 0.000002 -0.307261 0.025206 0.117468 -49.393701 10.087040 3.689223 10.899782 -0.000008 0.000009 8.249370 -1.303229 3.328662 -0.000034 -0.000002 0.000000 0.307258 0.025206 0.117477 -27.296568 -3.172820 6.253194 21.151276 -0.000006 0.000008 -2.885591 0.890665 -1.758410 -0.000260 0.000001 -0.000006 
0.895204 -0.862005 2.384891 10.944993 19.859805 -342.863776 0.000001 0.154692 0.259874 0.000000 0.000001 0.000003 -2.706243 -1.436240 -2.908566 -9.021777 -3.813690 -11.147291 0.000000 0.012376 0.661279 -10.225205 -19.333533 -7.222298 -0.008109 0.665042 0.014599 0.060085 -0.196775 0.638167 -0.000016 5.863572 0.000006 20.761110 27.425291 -6.757341 -0.003589 0.002493 1.686006 -0.000001 0.000001 -0.000000 0.267867 -0.074399 0.023428 -0.000000 0.000009 -0.000004 0.000001 0.000001 0.000005 -0.000001 -0.000013 0.000002 0.271867 -0.006476 0.027053 0.000001 0.000006 -0.000003 0.000003 0.000002 0.000002 -0.000002 -0.000003 -0.000003 0.257650 0.060956 0.018054 -0.000003 0.000002 -0.000002 0.000001 -0.000005 0.000004 0.000003 0.000003 0.000000 0.239090 0.105269 -0.018169 -0.000006 0.000005 -0.000003 0.000004 -0.000008 -0.000005 0.000001 -0.000007 -0.000007 0.055413 -0.042008 -0.041941 0.000008 0.000005 -0.000016 0.000001 -0.000001 -0.000008 -0.000005 0.000000 0.000004 -0.060085 -0.196775 0.638168 -0.000001 -12.598999 0.000002 58.950147 -44.557552 45.156655 0.000272 -0.000012 1.367088 -0.000010 -0.000226 0.000024 -0.267871 -0.074399 0.023430 0.000013 0.000007 -0.000006 0.000010 0.000009 0.000008 0.000000 -0.000010 0.000001 -0.271866 -0.006479 0.027054 -0.000004 0.000002 0.000008 -0.000008 0.000009 0.000010 -0.000004 -0.000007 -0.000001 -0.257650 0.060956 0.018058 -0.000003 0.000012 0.000007 -0.000006 0.000015 0.000002 -0.000004 0.000004 0.000001 -0.239089 0.105269 -0.018169 -0.000000 0.000015 0.000005 0.000001 0.000004 0.000020 -0.000001 -0.000010 -0.000005 -0.055412 -0.042006 -0.041938 -0.000003 0.000008 0.000007 -0.000006 -0.000009 0.000011 -0.000005 -0.000009 -0.000000 -0.307260 0.025206 0.117468 -47.541979 17.279385 6.807107 7.435190 -0.000007 0.000010 7.699377 -2.605578 6.563247 -0.000031 -0.000006 0.000002 0.307259 0.025206 0.117476 -25.211786 -4.644414 5.771521 18.042652 -0.000010 0.000007 -0.201602 2.109800 -4.378517 -0.000253 0.000002 -0.000001 
